Coordinates
version=1
nRows=12
nColumns=34
inDegrees=no

Units are S.I. units (second, meters, Newtons, ...)
If the header above contains a line with 'inDegrees', this indicates whether rotational values are in degrees (yes) or radians (no).

endheader
time	pelvis_tilt	pelvis_list	pelvis_rotation	pelvis_tx	pelvis_ty	pelvis_tz	hip_flexion_r	hip_adduction_r	hip_rotation_r	knee_angle_r	ankle_angle_r	subtalar_angle_r	mtp_angle_r	hip_flexion_l	hip_adduction_l	hip_rotation_l	knee_angle_l	ankle_angle_l	subtalar_angle_l	mtp_angle_l	lumbar_extension	lumbar_bending	lumbar_rotation	arm_flex_r	arm_add_r	arm_rot_r	elbow_flex_r	pro_sup_r	arm_flex_l	arm_add_l	arm_rot_l	elbow_flex_l	pro_sup_l
0	0.0911781	0.0125634	-0.10025	-0.0744577	0.997246	-0.308663	0.332023	0.0359851	-0.113648	0.191578	-0.0592064	-0.00496958	-0.0231955	-0.439412	0.0311534	-0.478373	0.121596	0.332063	0.644253	-0.0264619	-0.407404	-0.134134	-0.117603	0.0728252	-0.18485	-0.0681889	0.620241	2.07446	0.095705	-0.287328	0.0268032	1.01496	2.08168
0.01	0.0970331	0.00188144	-0.0973617	-0.0609293	1.00271	-0.309089	0.331127	0.0434189	-0.108235	0.228068	-0.0723266	-0.0410577	-0.0232043	-0.453173	0.0123753	-0.48654	0.140952	0.323083	0.654123	-0.0264897	-0.413534	-0.109439	-0.111381	0.0747238	-0.186882	-0.0772128	0.6142	2.07405	0.0775298	-0.281095	0.0338922	0.993428	2.0928
0.02	0.101435	-0.0085253	-0.093766	-0.0475238	1.00764	-0.309473	0.329742	0.0508442	-0.104024	0.260881	-0.0825356	-0.0737139	-0.0232132	-0.461693	-0.00732871	-0.491267	0.165358	0.31	0.658812	-0.0265174	-0.418131	-0.0850607	-0.106145	0.0764466	-0.188583	-0.0864741	0.608841	2.07379	0.0587624	-0.274656	0.0387161	0.971877	2.10148
0.03	0.104373	-0.0186553	-0.0894597	-0.03425	1.01205	-0.309821	0.327876	0.0582601	-0.101014	0.289985	-0.0898537	-0.102957	-0.0232221	-0.464915	-0.0279562	-0.492519	0.194856	0.292809	0.658245	-0.0265451	-0.421179	-0.0609993	-0.101896	0.0779973	-0.189955	-0.0959566	0.604169	2.07368	0.0394191	-0.268017	0.0412676	0.950306	2.10778
0.04	0.105804	-0.0285054	-0.0844347	-0.0211212	1.01597	-0.310142	0.325569	0.0656605	-0.0992073	0.315308	-0.094352	-0.128852	-0.0232309	-0.462682	-0.0494908	-0.490203	0.229547	0.27151	0.652233	-0.0265728	-0.422633	-0.0372631	-0.0986276	0.079383	-0.191012	-0.105609	0.600196	2.0737	0.0195566	-0.261205	0.0415467	0.928715	2.11192
0.05	0.105661	-0.038072	-0.07868	-0.00815579	1.01943	-0.310444	0.322906	0.0730305	-0.0986009	0.336766	-0.0961778	-0.151528	-0.0232398	-0.45474	-0.0718876	-0.484189	0.269561	0.24612	0.64052	-0.0266005	-0.422415	-0.0138683	-0.0963153	0.0806116	-0.191786	-0.115325	0.59694	2.07385	-0.000709157	-0.254276	0.0395921	0.907116	2.11424
0.06	0.103866	-0.0473536	-0.072188	0.0046239	1.02243	-0.310736	0.320032	0.0803438	-0.0991816	0.354323	-0.0955591	-0.171187	-0.0232487	-0.440805	-0.0950567	-0.474368	0.314985	0.216687	0.622919	-0.0266283	-0.420434	0.00915891	-0.0949037	0.0816889	-0.192337	-0.124933	0.59442	2.07408	-0.0211992	-0.247317	0.0355162	0.885548	2.11517
0.07	0.100364	-0.0563514	-0.0649675	0.0171933	1.025	-0.311026	0.31714	0.087563	-0.100911	0.368053	-0.0927898	-0.188089	-0.0232576	-0.420654	-0.118849	-0.460736	0.365767	0.183316	0.599488	-0.026656	-0.416617	0.0317788	-0.0942941	0.0826165	-0.192755	-0.134199	0.592648	2.07435	-0.0416848	-0.240453	0.0295229	0.864099	2.11516
0.08	0.0951576	-0.065067	-0.0570611	0.0295282	1.02717	-0.311321	0.31444	0.0946411	-0.103704	0.378177	-0.0882088	-0.202538	-0.0232664	-0.394232	-0.143039	-0.443461	0.421617	0.146199	0.570639	-0.0266837	-0.410943	0.0539308	-0.094334	0.0833935	-0.193157	-0.142844	0.591613	2.07457	-0.0619134	-0.233831	0.0219061	0.842925	2.1146
0.09	0.0883347	-0.0734935	-0.0485606	0.0416063	1.02896	-0.311625	0.312124	0.101517	-0.107414	0.385078	-0.082167	-0.214848	-0.0232753	-0.361738	-0.16731	-0.422904	0.481951	0.105651	0.537129	-0.0267114	-0.403488	0.0755203	-0.0948146	0.0840212	-0.193678	-0.150581	0.591278	2.0747	-0.0816383	-0.227611	0.0130301	0.822263	2.11383
0.1	0.0800896	-0.0816107	-0.0396119	0.0534101	1.03042	-0.311936	0.310314	0.108116	-0.111838	0.389261	-0.0750005	-0.225305	-0.0232842	-0.323675	-0.191258	-0.399605	0.545866	0.0621866	0.499989	-0.0267391	-0.394446	0.0964157	-0.0954753	0.0845084	-0.194455	-0.157144	0.59158	2.07467	-0.100645	-0.221955	0.00330073	0.802428	2.11304
0.11	0.0707217	-0.0893857	-0.0304063	0.0649295	1.03158	-0.312251	0.30902	0.114361	-0.11673	0.391294	-0.0670172	-0.234139	-0.0232931	-0.280837	-0.214421	-0.374248	0.612201	0.0166016	0.460439	-0.0267669	-0.384137	0.116457	-0.0960183	0.0848743	-0.195612	-0.162332	0.592433	2.07442	-0.118771	-0.21701	-0.00686621	0.783796	2.11238
